<?xml version="1.0" standalone="no"?>
<!DOCTYPE svg PUBLIC "-//W3C//DTD SVG 20010904//EN"
 "http://www.w3.org/TR/2001/REC-SVG-20010904/DTD/svg10.dtd">
<svg version="1.0" xmlns="http://www.w3.org/2000/svg"
 width="800.000000pt" height="600.000000pt" viewBox="0 0 800.000000 600.000000"
 preserveAspectRatio="xMidYMid meet">
<metadata>
Created by potrace 1.16, written by Peter Selinger 2001-2019
</metadata>
<g transform="translate(0.000000,600.000000) scale(0.100000,-0.100000)"
fill="#000000" stroke="none">
<path d="M645 5008 c-3 -7 -4 -854 -3 -1883 l3 -1870 435 0 435 0 3 257 2 258
50 0 49 0 3 -57 3 -58 2370 0 2370 0 3 57 3 58 49 0 50 0 2 -267 3 -268 435 0
435 0 0 1880 0 1880 -435 0 -435 0 -3 -202 -2 -203 -50 0 -49 0 -3 78 -3 77
-2370 0 -2370 0 -3 -77 -3 -78 -49 0 -50 0 -2 213 -3 212 -433 3 c-341 2 -434
0 -437 -10z m855 -1873 l0 -1865 -420 0 -420 0 0 1865 0 1865 420 0 420 0 0
-1865z m5830 -20 l0 -1865 -420 0 -420 0 0 1865 0 1865 420 0 420 0 0 -1865z
m-980 1275 l0 -340 -2355 0 -2355 0 0 340 0 340 2355 0 2355 0 0 -340z m-4730
-1210 l0 -970 -50 0 -50 0 0 970 0 970 50 0 50 0 0 -970z m4850 0 l0 -970 -50
0 -50 0 0 970 0 970 50 0 50 0 0 -970z m-4030 20 l0 -830 -400 0 -400 0 0 830
0 830 400 0 400 0 0 -830z m3090 0 l0 -830 -1535 0 -1535 0 0 830 0 830 1535
0 1535 0 0 -830z m820 0 l0 -830 -400 0 -400 0 0 830 0 830 400 0 400 0 0
-830z m0 -1190 l0 -340 -2352 0 -2353 0 0 340 0 340 2353 0 2352 0 0 -340z"/>
</g>
</svg>
